<?xml version="1.0" encoding="UTF-8" standalone="no"?>
<!-- Created with Inkscape (http://www.inkscape.org/) -->

<svg
   xmlns:dc="http://purl.org/dc/elements/1.1/"
   xmlns:cc="http://creativecommons.org/ns#"
   xmlns:rdf="http://www.w3.org/1999/02/22-rdf-syntax-ns#"
   xmlns:svg="http://www.w3.org/2000/svg"
   xmlns="http://www.w3.org/2000/svg"
   xmlns:sodipodi="http://sodipodi.sourceforge.net/DTD/sodipodi-0.dtd"
   xmlns:inkscape="http://www.inkscape.org/namespaces/inkscape"
   width="12"
   height="24"
   viewBox="0 0 12 24"
   id="svg2"
   version="1.1"
   inkscape:version="0.91 r13725"
   inkscape:export-filename="/tmp/icon.png"
   inkscape:export-xdpi="180"
   inkscape:export-ydpi="180"
   sodipodi:docname="separator.svg">
  <defs
     id="defs4">
    <filter
       inkscape:collect="always"
       style="color-interpolation-filters:sRGB"
       id="filter6395"
       x="-0.049681164"
       width="1.0993623"
       y="-0.059141207"
       height="1.1182824">
      <feGaussianBlur
         inkscape:collect="always"
         stdDeviation="0.58943824"
         id="feGaussianBlur6397" />
    </filter>
    <mask
       maskUnits="userSpaceOnUse"
       id="mask6405">
      <path
         sodipodi:nodetypes="ccssssccccssssccc"
         inkscape:connector-curvature="0"
         id="path6407"
         d="m -67.293995,1026.2221 0,1.6302 14.929206,0 c 1.182052,0 2.133296,0.9512 2.133296,2.1333 l 0,19.6502 c 0,1.1821 -0.951244,2.1353 -2.133296,2.1353 l -14.929206,0 0,1.3555 28.799492,0 0,-1.3555 -3.941344,0 c -1.182052,0 -2.133295,-0.9533 -2.133295,-2.1353 l 0,-19.6502 c 0,-1.182 0.951243,-2.1333 2.133295,-2.1333 l 3.941344,0 0,-1.6302 z"
         style="opacity:0.67400004;fill:#bcbcbc;fill-opacity:1;stroke:none;stroke-width:1;stroke-linecap:butt;stroke-linejoin:miter;stroke-miterlimit:4;stroke-dasharray:none;stroke-dashoffset:0;stroke-opacity:1" />
    </mask>
  </defs>
  <sodipodi:namedview
     id="base"
     pagecolor="#ffffff"
     bordercolor="#666666"
     borderopacity="1.0"
     inkscape:pageopacity="0.0"
     inkscape:pageshadow="2"
     inkscape:zoom="16"
     inkscape:cx="11.632287"
     inkscape:cy="12.814823"
     inkscape:document-units="px"
     inkscape:current-layer="layer1"
     showgrid="true"
     units="px"
     inkscape:snap-global="false"
     showguides="true"
     inkscape:guide-bbox="true"
     inkscape:window-width="1357"
     inkscape:window-height="750"
     inkscape:window-x="281"
     inkscape:window-y="174"
     inkscape:window-maximized="0">
    <inkscape:grid
       type="xygrid"
       id="grid5132" />
    <sodipodi:guide
       position="-32,18"
       orientation="1,0"
       id="guide5134" />
    <sodipodi:guide
       position="-48.03125,24.515625"
       orientation="0,1"
       id="guide5136" />
    <sodipodi:guide
       position="-46.953125,24.25"
       orientation="1,0"
       id="guide6134" />
  </sodipodi:namedview>
  <metadata
     id="metadata7">
    <rdf:RDF>
      <cc:Work
         rdf:about="">
        <dc:format>image/svg+xml</dc:format>
        <dc:type
           rdf:resource="http://purl.org/dc/dcmitype/StillImage" />
        <dc:title></dc:title>
      </cc:Work>
    </rdf:RDF>
  </metadata>
  <g
     inkscape:label="Calque 1"
     inkscape:groupmode="layer"
     id="layer1"
     transform="translate(0,-1028.3622)">
    <path
       style="opacity:1;fill:#695400;fill-opacity:1;stroke:none;stroke-width:1;stroke-linecap:butt;stroke-linejoin:miter;stroke-miterlimit:4;stroke-dasharray:none;stroke-dashoffset:0;stroke-opacity:1"
       d="m -13.907558,1026.7244 0,1.6302 14.9292061,0 c 1.182052,0 2.133295,0.9512 2.133295,2.1333 l 0,19.6502 c 0,1.1821 -0.951243,2.1353 -2.133295,2.1353 l -14.9292061,0 0,1.3555 28.799491,0 0,-1.3555 -3.941344,0 c -1.1820519,0 -2.1332949,-0.9533 -2.1332949,-2.1353 l 0,-19.6502 c 0,-1.182 0.951243,-2.1333 2.1332949,-2.1333 l 3.941344,0 0,-1.6302 z"
       id="rect4690"
       inkscape:connector-curvature="0"
       sodipodi:nodetypes="ccssssccccssssccc" />
    <g
       id="g6284"
       mask="url(#mask6405)"
       transform="translate(53.379958,0.5625)">
      <path
         style="opacity:1;fill:#000000;fill-opacity:1;stroke:none;stroke-width:1;stroke-linecap:butt;stroke-linejoin:miter;stroke-miterlimit:4;stroke-dasharray:none;stroke-dashoffset:0;stroke-opacity:1;filter:url(#filter6395)"
         d="m -55.110824,1027.8465 0,23.9199 3.439645,0 c 1.182052,0 2.132812,-0.9546 2.132812,-2.1367 l 0,-19.6504 c 0,-1.1821 -0.95076,-2.1328 -2.132812,-2.1328 z m 12.041553,0 c -1.182052,0 -2.132813,0.9508 -2.132813,2.1328 l 0,19.6504 c 0,1.182 0.950761,2.1367 2.132813,2.1367 l 3.748047,0 0,-23.9199 z"
         id="path4866"
         inkscape:connector-curvature="0"
         sodipodi:nodetypes="ccsssscssssccs"
         mask="none" />
    </g>
    <path
       style="opacity:0.872;fill:#000000;fill-opacity:1;stroke:none;stroke-width:1;stroke-linecap:butt;stroke-linejoin:miter;stroke-miterlimit:4;stroke-dasharray:none;stroke-dashoffset:0;stroke-opacity:1"
       d="m -119.78871,1027.85 0,23.9199 4.79883,0 c 1.18205,0 2.13281,-0.9546 2.13281,-2.1367 l 0,-19.6504 c 0,-1.1821 -0.95076,-2.1328 -2.13281,-2.1328 l -4.79883,0 z m 24.726565,0 c -1.182052,0 -2.132813,0.9508 -2.132813,2.1328 l 0,19.6504 c 0,1.182 0.950761,2.1367 2.132813,2.1367 l 3.748047,0 0,-23.9199 -3.748047,0 z"
       id="rect4711"
       inkscape:connector-curvature="0" />
  </g>
</svg>
